<?xml version="1.0" encoding="UTF-8" standalone="no"?><!DOCTYPE svg PUBLIC "-//W3C//DTD SVG 1.1//EN" "http://www.w3.org/Graphics/SVG/1.1/DTD/svg11.dtd"><svg width="100%" height="100%" viewBox="0 0 939 738" version="1.1" xmlns="http://www.w3.org/2000/svg" xmlns:xlink="http://www.w3.org/1999/xlink" xml:space="preserve" style="fill-rule:evenodd;clip-rule:evenodd;stroke-linejoin:round;stroke-miterlimit:1.41421;"><clipPath id="_clip1"><path d="M37.412,651.95l158.1,-589c5.1,-19 22.4,-33 43.1,-33c24.6,0 44.6,20 44.6,44.6c0,4 -0.5,7.9 -1.5,11.6l-158.2,589c-5.1,19 -22.4,33 -43.1,33c-24.6,0 -44.6,-20 -44.6,-44.6c0,-4 0.6,-7.9 1.6,-11.6m230.7,-282.9c-1,3.7 -1.5,7.6 -1.5,11.6c0,24.6 20,44.6 44.6,44.6c20.6,0 38,-14 43.1,-33l82.2,-306.1c1,-3.7 1.5,-7.6 1.5,-11.6c0,-24.6 -20,-44.6 -44.6,-44.6c-20.6,0 -38,14 -43.1,33l-82.2,306.1m309.6,0c-1,3.7 -1.5,7.6 -1.5,11.6c0,24.6 20,44.6 44.6,44.6c20.6,0 38,-14 43.1,-33l82.2,-306.1c1,-3.7 1.5,-7.6 1.5,-11.6c0,-24.6 -20,-44.6 -44.6,-44.6c-20.6,0 -38,14 -43.1,33l-82.2,306.1m-230.7,282.9c-1,3.7 -1.5,7.6 -1.5,11.6c0,24.6 20,44.6 44.6,44.6c20.6,0 38,-14 43.1,-33l82.1,-306.2c1,-3.7 1.5,-7.6 1.5,-11.6c0,-24.6 -20,-44.6 -44.6,-44.6c-20.6,0 -38,14 -43.1,33l-82.1,306.2m477.9,-283c1,-3.7 1.5,-7.6 1.5,-11.6c0,-24.6 -20,-44.6 -44.6,-44.6c-20.6,0 -38,14 -43.1,33l-82.2,306.1c-1,3.7 -1.5,7.6 -1.5,11.6c0,24.6 20,44.6 44.6,44.6c20.6,0 38,-14 43.1,-33l82.2,-306.1m-632.7,283c-1,3.7 -1.5,7.6 -1.5,11.6c0,24.6 20,44.6 44.6,44.6c20.6,0 38,-14 43.1,-33l28,-104.3c1,-3.7 1.5,-7.6 1.5,-11.6c0,-24.6 -20,-44.6 -44.6,-44.6c-20.6,0 -38,14 -43.1,33l-28,104.3m309.6,0c-1,3.7 -1.5,7.6 -1.5,11.6c0,24.6 20,44.6 44.6,44.6c20.6,0 38,-14 43.1,-33l28,-104.3c1,-3.7 1.5,-7.6 1.5,-11.6c0,-24.6 -20,-44.6 -44.6,-44.6c-20.6,0 -38,14 -43.1,33l-28,104.3m-24.7,-484.8c-1,3.7 -1.5,7.6 -1.5,11.6c0,24.6 20,44.6 44.6,44.6c20.6,0 38,-14 43.1,-33l28,-104.3c1,-3.7 1.5,-7.6 1.5,-11.6c0,-24.6 -20,-44.6 -44.6,-44.6c-20.6,0 -38,14 -43.1,33l-28,104.3m309.6,0c-1,3.7 -1.5,7.6 -1.5,11.6c0,24.6 20,44.6 44.6,44.6c20.6,0 38,-14 43.1,-33l28,-104.3c1,-3.7 1.5,-7.6 1.5,-11.6c0,-24.6 -20,-44.6 -44.6,-44.6c-20.6,0 -38,14 -43.1,33l-28,104.3"/></clipPath><g clip-path="url(#_clip1)"><path d="M741.612,737.05l196.5,-736.1l-741.5,0l-196.5,736.1l741.5,0Z" style="fill:url(#_Linear2);fill-rule:nonzero;"/></g><defs><linearGradient id="_Linear2" x1="0" y1="0" x2="1" y2="0" gradientUnits="userSpaceOnUse" gradientTransform="matrix(937.968,0,0,937.968,0.122314,369.016)"><stop offset="0%" style="stop-color:#36a0d0;stop-opacity:1"/><stop offset="100%" style="stop-color:#f09094;stop-opacity:1"/></linearGradient></defs></svg>