<?xml version="1.0" encoding="utf-8"?>
<!-- Generator: Adobe Illustrator 22.0.1, SVG Export Plug-In . SVG Version: 6.00 Build 0)  -->
<svg version="1.1" id="Layer_1" xmlns="http://www.w3.org/2000/svg" xmlns:xlink="http://www.w3.org/1999/xlink" x="0px" y="0px"
	 viewBox="0 0 2000 700" style="enable-background:new 0 0 2000 700;" xml:space="preserve">
<style type="text/css">
	.st0{clip-path:url(#SVGID_2_);fill:url(#SVGID_3_);}
	.st1{fill:#485C66;}
</style>
<g>
	<defs>
		<path id="SVGID_1_" d="M22.1,632.4L180.2,43.4l0,0c5.1-19,22.4-33,43.1-33c24.6,0,44.6,20,44.6,44.6c0,4-0.5,7.9-1.5,11.6l0,0
			L108.2,655.6l0,0c-5.1,19-22.4,33-43.1,33c-24.6,0-44.6-20-44.6-44.6C20.5,640,21.1,636.1,22.1,632.4 M252.8,349.5
			c-1,3.7-1.5,7.6-1.5,11.6c0,24.6,20,44.6,44.6,44.6c20.6,0,38-14,43.1-33l0,0l82.2-306.1l0,0c1-3.7,1.5-7.6,1.5-11.6
			c0-24.6-20-44.6-44.6-44.6c-20.6,0-38,14-43.1,33l0,0L252.8,349.5 M562.4,349.5c-1,3.7-1.5,7.6-1.5,11.6c0,24.6,20,44.6,44.6,44.6
			c20.6,0,38-14,43.1-33l0,0l82.2-306.1l0,0c1-3.7,1.5-7.6,1.5-11.6c0-24.6-20-44.6-44.6-44.6c-20.6,0-38,14-43.1,33l0,0
			L562.4,349.5 M331.7,632.4c-1,3.7-1.5,7.6-1.5,11.6c0,24.6,20,44.6,44.6,44.6c20.6,0,38-14,43.1-33l0,0L500,349.4l0,0
			c1-3.7,1.5-7.6,1.5-11.6c0-24.6-20-44.6-44.6-44.6c-20.6,0-38,14-43.1,33l0,0L331.7,632.4 M809.6,349.4c1-3.7,1.5-7.6,1.5-11.6
			c0-24.6-20-44.6-44.6-44.6c-20.6,0-38,14-43.1,33l0,0l-82.2,306.1l0,0c-1,3.7-1.5,7.6-1.5,11.6c0,24.6,20,44.6,44.6,44.6
			c20.6,0,38-14,43.1-33l0,0L809.6,349.4 M176.9,632.4c-1,3.7-1.5,7.6-1.5,11.6c0,24.6,20,44.6,44.6,44.6c20.6,0,38-14,43.1-33l0,0
			l28-104.3l0,0c1-3.7,1.5-7.6,1.5-11.6c0-24.6-20-44.6-44.6-44.6c-20.6,0-38,14-43.1,33l0,0L176.9,632.4 M486.5,632.4
			c-1,3.7-1.5,7.6-1.5,11.6c0,24.6,20,44.6,44.6,44.6c20.6,0,38-14,43.1-33l0,0l28-104.3l0,0c1-3.7,1.5-7.6,1.5-11.6
			c0-24.6-20-44.6-44.6-44.6c-20.6,0-38,14-43.1,33l0,0L486.5,632.4 M461.8,147.6c-1,3.7-1.5,7.6-1.5,11.6c0,24.6,20,44.6,44.6,44.6
			c20.6,0,38-14,43.1-33l0,0l28-104.3l0,0c1-3.7,1.5-7.6,1.5-11.6c0-24.6-20-44.6-44.6-44.6c-20.6,0-38,14-43.1,33l0,0L461.8,147.6
			 M771.4,147.6c-1,3.7-1.5,7.6-1.5,11.6c0,24.6,20,44.6,44.6,44.6c20.6,0,38-14,43.1-33l0,0l28-104.3l0,0c1-3.7,1.5-7.6,1.5-11.6
			c0-24.6-20-44.6-44.6-44.6c-20.6,0-38,14-43.1,33l0,0L771.4,147.6"/>
	</defs>
	<clipPath id="SVGID_2_">
		<use xlink:href="#SVGID_1_"  style="overflow:visible;"/>
	</clipPath>
	<linearGradient id="SVGID_3_" gradientUnits="userSpaceOnUse" x1="-15.1898" y1="349.4656" x2="922.7784" y2="349.4656">
		<stop  offset="0" style="stop-color:#36A0D0"/>
		<stop  offset="1" style="stop-color:#F09094"/>
	</linearGradient>
	<polygon class="st0" points="726.3,717.5 922.8,-18.6 181.3,-18.6 -15.2,717.5 	"/>
</g>
<g>
	<path class="st1" d="M1083.3,241.1h-31.9V18h31.9V241.1z"/>
	<path class="st1" d="M1211.4,142.6c10.5,10.2,15.3,20.7,15.3,33.8v32.8c0,17.5-14.3,31.9-31.9,31.9H1147
		c-17.5,0-31.9-14.3-31.9-31.9v-31.9h31.9v31.9h47.8v-37l-64.4-64.1c-10.5-10.2-15.3-20.7-15.3-33.8V49.9
		c0-17.5,14.3-31.9,31.9-31.9h47.8c17.5,0,31.9,14.3,31.9,31.9v31.9h-31.9V49.9H1147v28.7L1211.4,142.6z"/>
	<path class="st1" d="M1354.8,142.6c10.5,10.2,15.3,20.7,15.3,33.8v32.8c0,17.5-14.3,31.9-31.9,31.9h-47.8
		c-17.5,0-31.9-14.3-31.9-31.9v-31.9h31.9v31.9h47.8v-37l-64.4-64.1c-10.5-10.2-15.3-20.7-15.3-33.8V49.9
		c0-17.5,14.3-31.9,31.9-31.9h47.8c17.5,0,31.9,14.3,31.9,31.9v31.9h-31.9V49.9h-47.8v28.7L1354.8,142.6z"/>
	<path class="st1" d="M1545.4,78.2V49.9h-47.8v31.9h-31.9V49.9c0-17.5,14.3-31.9,31.9-31.9h47.8c17.5,0,31.9,14.3,31.9,31.9v28.4
		c0,6.7-1.9,13.7-5.4,18.2l-74.3,95v17.8h79.7v31.9h-111.5v-49.7c0-6.7,1.9-13.7,5.4-18.2L1545.4,78.2z"/>
	<path class="st1" d="M1720.7,209.2c0,17.5-14.3,31.9-31.9,31.9H1641c-17.5,0-31.9-14.3-31.9-31.9V49.9c0-17.5,14.3-31.9,31.9-31.9
		h47.8c17.5,0,31.9,14.3,31.9,31.9V209.2z M1688.8,209.2V49.9H1641v159.4H1688.8z"/>
	<path class="st1" d="M1844,241.1h-95.6v-31.9h31.9V49.9h-31.9V18h63.7v191.2h31.9V241.1z"/>
	<path class="st1" d="M1979.5,209.2c0,17.5-14.3,31.9-31.9,31.9h-47.8c-17.5,0-31.9-14.3-31.9-31.9v-61.5c0-12.4,5.4-20.4,15.9-24.5
		c-10.5-4.1-15.9-12.1-15.9-24.5V49.9c0-17.5,14.3-31.9,31.9-31.9h47.8c17.5,0,31.9,14.3,31.9,31.9v48.8c0,12.4-5.4,20.4-15.9,24.5
		c10.5,4.1,15.9,12.1,15.9,24.5V209.2z M1947.6,107.2V49.9h-47.8v57.4H1947.6z M1947.6,209.2v-70.1h-47.8v70.1H1947.6z"/>
</g>
<g>
	<path class="st1" d="M1113.8,363.7h-25.3V484h-20.2V363.7H1043v-20h70.8V363.7z"/>
	<path class="st1" d="M1179.5,484h-30.3c-11.1,0-20.2-9-20.2-20V363.7c0-11,9.1-20,20.2-20h30.3c11.1,0,20.2,9,20.2,20v100.2
		C1199.7,474.9,1190.6,484,1179.5,484z M1179.5,463.9V363.7h-30.3v100.2H1179.5z"/>
	<path class="st1" d="M1300.8,484h-23l-24.3-55.9l-13.3,25.6V484h-20.2V343.7h20.2v71.7l36.8-71.7h21.4l-33.6,64.9L1300.8,484z"/>
	<path class="st1" d="M1381.6,343.7l-30.5,86.2V484h-20.2v-54.1l-30.1-86.2h22.2l18.2,64.1l18.2-64.1H1381.6z"/>
	<path class="st1" d="M1442.3,484H1412c-11.1,0-20.2-9-20.2-20V363.7c0-11,9.1-20,20.2-20h30.3c11.1,0,20.2,9,20.2,20v100.2
		C1462.5,474.9,1453.4,484,1442.3,484z M1442.3,463.9V363.7H1412v100.2H1442.3z"/>
	<path class="st1" d="M1503.3,479.6L1492,504h-9.7l6.1-19.2c-5.1-1.8-7.7-5.4-7.7-10.8c0-6.6,5.5-12,12.1-12
		c6.5,0,12.1,5.2,12.1,11.6C1505,475.4,1504.4,477.4,1503.3,479.6z"/>
	<path class="st1" d="M1624.2,463.9c0,11-9.1,20-20.2,20h-25.3c-11.1,0-20.2-9-20.2-20v-20h20.2v20h25.3V343.7h20.2V463.9z"/>
	<path class="st1" d="M1722.9,484h-21.4l-4-20h-35.2l-4,20h-21.4l30.3-140.3h25.5L1722.9,484z M1693.4,443.9l-13.1-65.3l-14,65.3
		H1693.4z"/>
	<path class="st1" d="M1806.2,407.8c0,11-8.9,20-20.2,20h-30.3V484h-20.2V343.7h50.5c11.1,0,20.2,9,20.2,20V407.8z M1786,407.8
		v-44.1h-30.3v44.1H1786z"/>
	<path class="st1" d="M1896.2,484h-21.4l-4-20h-35.2l-4,20H1810l30.3-140.3h25.5L1896.2,484z M1866.7,443.9l-13.1-65.3l-13.9,65.3
		H1866.7z"/>
	<path class="st1" d="M1979.5,484h-17.8l-32.8-91.8V484h-20.2V343.7h21.8l28.7,82.5v-82.5h20.2V484z"/>
</g>
</svg>
